<!DOCTYPE svg PUBLIC "-//W3C//DTD SVG 1.1//EN" "http://www.w3.org/Graphics/SVG/1.1/DTD/svg11.dtd">
<!-- Uploaded to: SVG Repo, www.svgrepo.com, Transformed by: SVG Repo Mixer Tools -->
<svg fill="#000000" version="1.1" id="Layer_1" xmlns="http://www.w3.org/2000/svg" xmlns:xlink="http://www.w3.org/1999/xlink" viewBox="0 0 32.00 32.00" xml:space="preserve" width="256px" height="256px" stroke="#000000" stroke-width="0.00032">
<g id="SVGRepo_bgCarrier" stroke-width="0"/>
<g id="SVGRepo_tracerCarrier" stroke-linecap="round" stroke-linejoin="round"/>
<g id="SVGRepo_iconCarrier"> <path id="desktop_1_" d="M23,29.36H9v-0.72h6.64v-4.28H3c-1.301,0-2.36-1.059-2.36-2.36V5c0-1.301,1.059-2.36,2.36-2.36h26 c1.302,0,2.36,1.059,2.36,2.36v17c0,1.302-1.059,2.36-2.36,2.36H16.36v4.279H23V29.36z M1.36,19.36V22c0,0.904,0.736,1.64,1.64,1.64 h26c0.904,0,1.64-0.735,1.64-1.64v-2.64H1.36z M1.36,18.64h29.28V5c0-0.904-0.735-1.64-1.64-1.64H3C2.096,3.36,1.36,4.096,1.36,5 V18.64z"/> <rect id="_Transparent_Rectangle" style="fill:none;" width="32" height="32"/> </g>
</svg>